<svg width="87" height="63" viewBox="0 0 87 63" fill="none" xmlns="http://www.w3.org/2000/svg">
<path d="M18.5563 2.40001V25.88C18.583 26.5733 18.8363 27.16 19.3163 27.64C19.823 28.12 20.423 28.36 21.1163 28.36H21.5963L21.6363 28.76H9.47629V28.36H9.99629C10.663 28.36 11.2363 28.12 11.7163 27.64C12.223 27.16 12.503 26.5867 12.5563 25.92V2.40001H7.15629C5.92962 2.42667 4.95629 2.81334 4.23629 3.56001C3.51629 4.30667 3.15629 5.28001 3.15629 6.48001V6.96001H2.75629V8.10623e-06C3.84962 0.453342 5.42296 0.693342 7.47629 0.720008H23.5963C24.423 0.720008 25.3163 0.640009 26.2763 0.480009C27.263 0.320008 27.943 0.160008 28.3163 8.10623e-06V6.96001H27.9163V6.48001C27.9163 4.82668 27.2896 3.65334 26.0363 2.96001C25.4496 2.61334 24.743 2.42667 23.9163 2.40001H18.5563ZM48.4969 28.36C49.1902 28.36 49.7236 28.1867 50.0969 27.84C50.7102 27.2267 51.0302 26.5733 51.0569 25.88V15.68H38.0969V25.84C38.0969 26.5333 38.3502 27.1333 38.8569 27.64C39.3636 28.12 39.9636 28.36 40.6569 28.36H41.1369L41.1769 28.76H29.0169V28.36H29.5369C30.2302 28.36 30.8169 28.12 31.2969 27.64C31.8036 27.1333 32.0702 26.5333 32.0969 25.84V3.68001C32.0702 2.98667 31.8036 2.40001 31.2969 1.92001C30.8169 1.41334 30.2302 1.16001 29.5369 1.16001H29.0169V0.760008H41.1769L41.1369 1.16001H40.6569C39.9636 1.16001 39.3636 1.41334 38.8569 1.92001C38.3502 2.40001 38.0969 2.98667 38.0969 3.68001V13.96H51.0569V3.68001C51.0302 2.98667 50.7636 2.40001 50.2569 1.92001C49.7769 1.41334 49.1902 1.16001 48.4969 1.16001H47.9769V0.760008H60.1369V1.16001H59.6169C58.9236 1.16001 58.3236 1.41334 57.8169 1.92001C57.3102 2.40001 57.0569 2.98667 57.0569 3.68001V25.84C57.0569 26.5333 57.3102 27.1333 57.8169 27.64C58.3236 28.12 58.9236 28.36 59.6169 28.36H60.1369V28.76H47.9769V28.36H48.4969ZM62.49 28.36C63.1834 28.36 63.77 28.12 64.25 27.64C64.7567 27.1333 65.0234 26.5333 65.05 25.84V3.56001C64.9967 2.86668 64.7967 2.36001 64.45 2.04001C63.81 1.45334 63.1567 1.16001 62.49 1.16001H61.97V0.760008H77.29C78.5967 0.760008 79.6767 0.666675 80.53 0.480009C81.3834 0.266675 81.9034 0.120008 82.09 0.0400076V7.04001L81.69 7.00001V6.56001C81.69 4.90668 81.0767 3.73334 79.85 3.04001C79.2634 2.69334 78.57 2.50668 77.77 2.48001H71.05V14.12H76.33C77.3167 14.0933 78.13 13.76 78.77 13.12C79.41 12.4533 79.73 11.64 79.73 10.68V10.32H80.13V19.56H79.73V19.24C79.73 18.2533 79.41 17.44 78.77 16.8C78.1567 16.16 77.37 15.8267 76.41 15.8H71.05V27.04H76.29C78.2367 27.04 79.8634 26.48 81.17 25.36C82.5034 24.24 83.49 22.6533 84.13 20.6H84.53L82.69 28.76H61.97V28.36H62.49ZM38.2404 61.36H38.8804V61.76H26.8804V61.4H27.4804C27.9337 61.3733 28.3204 61.1867 28.6404 60.84C28.9604 60.4933 29.0937 60.1067 29.0404 59.68L27.4804 45.16L19.9604 58.12C18.9737 59.7733 18.467 61.2533 18.4404 62.56H18.0404L7.76035 45.28L6.20035 59.68C6.14702 60.1067 6.28035 60.5067 6.60035 60.88C6.92035 61.2267 7.30702 61.4 7.76035 61.4H8.36035V61.76H0.000351541V61.36H0.640352C1.38702 61.36 2.02702 61.1333 2.56035 60.68C3.12035 60.2267 3.45369 59.6133 3.56035 58.84L6.88035 33.2H7.24035L19.6404 53.6L31.5604 33.2H31.9204L35.3204 58.84C35.4537 59.6133 35.787 60.2267 36.3204 60.68C36.8804 61.1333 37.5204 61.36 38.2404 61.36ZM39.1854 61.36C39.8787 61.36 40.4654 61.12 40.9454 60.64C41.452 60.1333 41.7187 59.5333 41.7454 58.84V36.56C41.692 35.8667 41.492 35.36 41.1454 35.04C40.5054 34.4533 39.852 34.16 39.1854 34.16H38.6654V33.76H53.9854C55.292 33.76 56.372 33.6667 57.2254 33.48C58.0787 33.2667 58.5987 33.12 58.7854 33.04V40.04L58.3854 40V39.56C58.3854 37.9067 57.772 36.7333 56.5454 36.04C55.9587 35.6933 55.2654 35.5067 54.4654 35.48H47.7454V47.12H53.0254C54.012 47.0933 54.8254 46.76 55.4654 46.12C56.1054 45.4533 56.4254 44.64 56.4254 43.68V43.32H56.8254V52.56H56.4254V52.24C56.4254 51.2533 56.1054 50.44 55.4654 49.8C54.852 49.16 54.0654 48.8267 53.1054 48.8H47.7454V60.04H52.9854C54.932 60.04 56.5587 59.48 57.8654 58.36C59.1987 57.24 60.1854 55.6533 60.8254 53.6H61.2254L59.3854 61.76H38.6654V61.36H39.1854ZM77.0797 35.4V58.88C77.1064 59.5733 77.3597 60.16 77.8397 60.64C78.3464 61.12 78.9464 61.36 79.6397 61.36H80.1197L80.1597 61.76H67.9997V61.36H68.5197C69.1864 61.36 69.7597 61.12 70.2397 60.64C70.7464 60.16 71.0264 59.5867 71.0797 58.92V35.4H65.6797C64.4531 35.4267 63.4797 35.8133 62.7597 36.56C62.0397 37.3067 61.6797 38.28 61.6797 39.48V39.96H61.2797V33C62.3731 33.4533 63.9464 33.6933 65.9997 33.72H82.1197C82.9464 33.72 83.8397 33.64 84.7997 33.48C85.7864 33.32 86.4664 33.16 86.8397 33V39.96H86.4397V39.48C86.4397 37.8267 85.8131 36.6533 84.5597 35.96C83.9731 35.6133 83.2664 35.4267 82.4397 35.4H77.0797Z" fill="white"/>
</svg>
